<svg width="12" height="9" viewBox="0 0 12 9" fill="none" xmlns="http://www.w3.org/2000/svg">
<path d="M10.2355 0.614183C10.3037 0.544549 10.3852 0.48923 10.4751 0.451466C10.565 0.413701 10.6615 0.394249 10.759 0.394249C10.8565 0.394249 10.953 0.413701 11.0429 0.451466C11.1328 0.48923 11.2142 0.544549 11.2825 0.614183C11.5685 0.903183 11.5725 1.37018 11.2925 1.66418L5.37949 8.65418C5.31236 8.7279 5.23089 8.78715 5.14007 8.82831C5.04925 8.86946 4.95099 8.89165 4.8513 8.89352C4.75161 8.8954 4.65258 8.87691 4.56028 8.83919C4.46798 8.80148 4.38435 8.74533 4.31449 8.67418L0.716492 5.02818C0.577729 4.88667 0.5 4.69638 0.5 4.49818C0.5 4.29999 0.577729 4.1097 0.716492 3.96818C0.784738 3.89855 0.86619 3.84323 0.95608 3.80547C1.04597 3.7677 1.14249 3.74825 1.23999 3.74825C1.33749 3.74825 1.43401 3.7677 1.5239 3.80547C1.61379 3.84323 1.69525 3.89855 1.76349 3.96818L4.81549 7.06118L10.2155 0.636183C10.2217 0.628455 10.2284 0.621108 10.2355 0.614183Z" fill="#263A09"/>
</svg>
