<svg width="13" height="13" viewBox="0 0 13 13" fill="none" xmlns="http://www.w3.org/2000/svg">
<path d="M8.40408 6.64804L12.7041 2.35804C12.8924 2.16974 12.9982 1.91434 12.9982 1.64804C12.9982 1.38174 12.8924 1.12635 12.7041 0.938043C12.5158 0.749739 12.2604 0.643951 11.9941 0.643951C11.7278 0.643951 11.4724 0.749739 11.2841 0.938043L6.99408 5.23804L2.70408 0.938043C2.51578 0.749739 2.26038 0.643951 1.99408 0.643951C1.72778 0.643951 1.47238 0.749739 1.28408 0.938043C1.09578 1.12635 0.989988 1.38174 0.989988 1.64804C0.989988 1.91434 1.09578 2.16974 1.28408 2.35804L5.58408 6.64804L1.28408 10.938C1.19035 11.031 1.11596 11.1416 1.06519 11.2635C1.01442 11.3853 0.988281 11.516 0.988281 11.648C0.988281 11.7801 1.01442 11.9108 1.06519 12.0326C1.11596 12.1545 1.19035 12.2651 1.28408 12.358C1.37704 12.4518 1.48764 12.5262 1.6095 12.5769C1.73136 12.6277 1.86207 12.6538 1.99408 12.6538C2.12609 12.6538 2.2568 12.6277 2.37866 12.5769C2.50052 12.5262 2.61112 12.4518 2.70408 12.358L6.99408 8.05804L11.2841 12.358C11.377 12.4518 11.4876 12.5262 11.6095 12.5769C11.7314 12.6277 11.8621 12.6538 11.9941 12.6538C12.1261 12.6538 12.2568 12.6277 12.3787 12.5769C12.5005 12.5262 12.6111 12.4518 12.7041 12.358C12.7978 12.2651 12.8722 12.1545 12.923 12.0326C12.9737 11.9108 12.9999 11.7801 12.9999 11.648C12.9999 11.516 12.9737 11.3853 12.923 11.2635C12.8722 11.1416 12.7978 11.031 12.7041 10.938L8.40408 6.64804Z" fill="#F2F2F2"/>
</svg>
