<svg width="12" height="15" viewBox="0 0 12 15" fill="none" xmlns="http://www.w3.org/2000/svg">
<path fill-rule="evenodd" clip-rule="evenodd" d="M1.7999 0.643951C1.4286 0.643951 1.0725 0.791451 0.809953 1.054C0.547402 1.31655 0.399902 1.67265 0.399902 2.04395V13.244C0.399902 13.6153 0.547402 13.9713 0.809953 14.2339C1.0725 14.4965 1.4286 14.644 1.7999 14.644H10.1999C10.5712 14.644 10.9273 14.4965 11.1899 14.2339C11.4524 13.9713 11.5999 13.6153 11.5999 13.244V3.73375C11.5998 3.36248 11.4523 3.00644 11.1897 2.74395L9.4999 1.05415C9.23741 0.791582 8.88138 0.644031 8.5101 0.643951H1.7999ZM1.7999 2.04395H8.5101L10.1999 3.73375V13.244H1.7999V2.04395ZM8.9665 6.79905C9.03336 6.73448 9.08669 6.65724 9.12337 6.57183C9.16006 6.48643 9.17937 6.39458 9.18018 6.30163C9.18099 6.20869 9.16327 6.11651 9.12808 6.03048C9.09288 5.94446 9.0409 5.8663 8.97518 5.80057C8.90945 5.73485 8.8313 5.68287 8.74527 5.64768C8.65924 5.61248 8.56707 5.59477 8.47412 5.59558C8.38118 5.59638 8.28932 5.61569 8.20392 5.65238C8.11852 5.68907 8.04128 5.74239 7.9767 5.80925L5.0073 8.77865L4.0168 7.78885C3.88478 7.66134 3.70796 7.59078 3.52442 7.59238C3.34088 7.59397 3.16532 7.66759 3.03553 7.79738C2.90574 7.92716 2.83213 8.10273 2.83053 8.28627C2.82894 8.46981 2.89949 8.64663 3.027 8.77865L4.462 10.2144C4.53351 10.2859 4.61841 10.3426 4.71185 10.3814C4.8053 10.4201 4.90545 10.44 5.0066 10.44C5.10775 10.44 5.20791 10.4201 5.30135 10.3814C5.3948 10.3426 5.4797 10.2859 5.5512 10.2144L8.9665 6.79905Z" fill="#F2F2F2"/>
</svg>
