<svg width="16" height="11" viewBox="0 0 16 11" fill="none" xmlns="http://www.w3.org/2000/svg">
<path d="M6.99052 1.34858L0.418141 7.92096C0.285574 8.05353 0.180416 8.21091 0.108671 8.38412C0.0369262 8.55732 1.39682e-09 8.74296 0 8.93044C-1.39682e-09 9.11792 0.0369262 9.30356 0.108671 9.47677C0.180416 9.64998 0.285574 9.80736 0.418141 9.93993C0.550708 10.0725 0.708088 10.1777 0.881296 10.2494C1.0545 10.3211 1.24015 10.3581 1.42762 10.3581C1.6151 10.3581 1.80074 10.3211 1.97395 10.2494C2.14716 10.1777 2.30454 10.0725 2.43711 9.93993L8.00716 4.38419L13.5629 9.93993C13.6955 10.0725 13.8528 10.1777 14.026 10.2494C14.1993 10.3211 14.3849 10.3581 14.5724 10.3581C14.7599 10.3581 14.9455 10.3211 15.1187 10.2494C15.2919 10.1777 15.4493 10.0725 15.5819 9.93993C15.7144 9.80736 15.8196 9.64998 15.8913 9.47677C15.9631 9.30356 16 9.11792 16 8.93044C16 8.74296 15.9631 8.55732 15.8913 8.38412C15.8196 8.21091 15.7144 8.05353 15.5819 7.92096L9.00948 1.34858C8.87701 1.21584 8.71967 1.11053 8.54644 1.03868C8.37322 0.966821 8.18753 0.929835 8 0.929835C7.81247 0.929835 7.62678 0.966821 7.45356 1.03868C7.28034 1.11053 7.12299 1.21584 6.99052 1.34858Z" fill="#1E1E1E"/>
</svg>
